<?xml version="1.0" standalone="no"?>
<!DOCTYPE svg PUBLIC "-//W3C//DTD SVG 20010904//EN"
 "http://www.w3.org/TR/2001/REC-SVG-20010904/DTD/svg10.dtd">
<svg version="1.0" xmlns="http://www.w3.org/2000/svg"
 width="236.000000pt" height="198.000000pt" viewBox="0 0 236.000000 198.000000"
 preserveAspectRatio="xMidYMid meet">

<g transform="translate(0.000000,198.000000) scale(0.100000,-0.100000)"
fill="#000000" stroke="none">
<path d="M1317 1920 c-99 -25 -197 -107 -283 -236 -33 -50 -125 -232 -226
-447 -93 -199 -224 -475 -292 -612 -162 -330 -211 -385 -369 -416 -32 -7 -56
-17 -54 -22 6 -19 98 -76 140 -88 129 -35 280 47 394 213 61 88 89 144 273
538 220 471 363 760 405 815 65 87 139 132 249 150 l38 6 -21 23 c-59 62 -172
96 -254 76z"/>
</g>
</svg>
